<svg xmlns="http://www.w3.org/2000/svg" width="1200" height="675" viewBox="0 0 1200 675" role="img" aria-labelledby="title desc">
  <title id="title">Abstract data dashboard inline art</title>
  <desc id="desc">Teal dashboard panels, charts, and a bright control bar.</desc>
  <defs>
    <linearGradient id="bg2" x1="0" y1="0" x2="1" y2="1">
      <stop offset="0%" stop-color="#052e2b"/>
      <stop offset="55%" stop-color="#0f766e"/>
      <stop offset="100%" stop-color="#14b8a6"/>
    </linearGradient>
    <linearGradient id="panel" x1="0" y1="0" x2="1" y2="1">
      <stop offset="0%" stop-color="#ecfeff" stop-opacity="0.98"/>
      <stop offset="100%" stop-color="#cffafe" stop-opacity="0.92"/>
    </linearGradient>
  </defs>
  <rect width="1200" height="675" fill="url(#bg2)"/>
  <circle cx="180" cy="120" r="140" fill="#a7f3d0" opacity="0.12"/>
  <circle cx="1040" cy="560" r="190" fill="#0ea5e9" opacity="0.12"/>
  <g transform="translate(118 110)" fill="url(#panel)" stroke="#083344" stroke-width="5">
    <rect x="0" y="0" width="418" height="184" rx="28"/>
    <rect x="460" y="0" width="504" height="184" rx="28"/>
    <rect x="0" y="220" width="964" height="250" rx="32"/>
  </g>
  <g stroke-linecap="round" stroke-linejoin="round">
    <path d="M180 232 C250 196 310 196 378 214 C430 228 478 220 520 198" fill="none" stroke="#14b8a6" stroke-width="12"/>
    <path d="M650 230 C714 202 768 206 832 232 C892 256 950 252 1020 214" fill="none" stroke="#0f172a" stroke-width="10" opacity="0.9"/>
    <path d="M180 412 C266 352 334 360 404 386 C476 412 530 416 604 370 C680 324 748 320 842 360 C920 392 976 392 1050 336" fill="none" stroke="#e2e8f0" stroke-width="14"/>
  </g>
  <g fill="#ffffff" opacity="0.95">
    <circle cx="180" cy="232" r="9"/>
    <circle cx="378" cy="214" r="9"/>
    <circle cx="520" cy="198" r="9"/>
    <circle cx="650" cy="230" r="9"/>
    <circle cx="832" cy="232" r="9"/>
    <circle cx="1020" cy="214" r="9"/>
    <circle cx="180" cy="412" r="10"/>
    <circle cx="404" cy="386" r="10"/>
    <circle cx="604" cy="370" r="10"/>
    <circle cx="842" cy="360" r="10"/>
    <circle cx="1050" cy="336" r="10"/>
  </g>
  <g transform="translate(174 250)">
    <rect x="0" y="0" width="124" height="140" rx="18" fill="#043b39" opacity="0.5"/>
    <rect x="146" y="0" width="124" height="140" rx="18" fill="#043b39" opacity="0.5"/>
    <rect x="292" y="0" width="124" height="140" rx="18" fill="#043b39" opacity="0.5"/>
    <rect x="438" y="0" width="124" height="140" rx="18" fill="#043b39" opacity="0.5"/>
    <path d="M24 106 h76" stroke="#5eead4" stroke-width="12"/>
    <path d="M170 86 h76" stroke="#f9fafb" stroke-width="12"/>
    <path d="M316 62 h76" stroke="#99f6e4" stroke-width="12"/>
    <path d="M462 42 h76" stroke="#dbeafe" stroke-width="12"/>
  </g>
</svg>
